<?xml version="1.0" encoding="utf-8"?>
<!DOCTYPE svg PUBLIC "-//W3C//DTD SVG 1.1//EN" "http://www.w3.org/Graphics/SVG/1.1/DTD/svg11.dtd">
<svg version="1.1" baseProfile="full" 
	xmlns="http://www.w3.org/2000/svg"
	xmlns:xlink="http://www.w3.org/1999/xlink"
	xmlns:ev="http://www.w3.org/2001/xml-events"
	width="123px" height="35px">
<path fill="rgb(123,123,123)" fill-rule="evenodd" d="M115.805 19.3526 C115.805 19.3526 115.805 34.0156 115.805 34.0156 C115.805 34.0156 113.549 34.0156 113.549 34.0156 C113.549 34.0156 113.549 19.3526 113.549 19.3526 C113.549 19.3526 107.016 0.835684 107.016 0.835684 C107.016 0.835684 109.46 0.835684 109.46 0.835684 C109.46 0.835684 114.724 16.4388 114.724 16.4388 C114.724 16.4388 120.034 0.835684 120.034 0.835684 C120.034 0.835684 122.572 0.835684 122.572 0.835684 C122.572 0.835684 115.805 19.3526 115.805 19.3526 Z M95.1722 15.6868 C95.1722 15.6868 102.927 15.6868 102.927 15.6868 C102.927 15.6868 102.927 17.7077 102.927 17.7077 C102.927 17.7077 95.1252 17.7077 95.1252 17.7077 C95.1252 17.7077 95.1252 31.9478 95.1252 31.9478 C95.1252 31.9478 104.572 31.9478 104.572 31.9478 C104.572 31.9478 104.572 34.0156 104.572 34.0156 C104.572 34.0156 92.8694 34.0156 92.8694 34.0156 C92.8694 34.0156 92.8694 0.835684 92.8694 0.835684 C92.8694 0.835684 104.619 0.835684 104.619 0.835684 C104.619 0.835684 104.619 2.90359 104.619 2.90359 C104.619 2.90359 95.1722 2.90359 95.1722 2.90359 C95.1722 2.90359 95.1722 15.6868 95.1722 15.6868 Z M87.0986 26.6371 C87.0986 29.786 86.6756 34.5326 80.331 34.5326 C76.4772 34.5326 73.3754 32.5588 73.3754 27.812 C73.3754 27.812 73.3754 23.1593 73.3754 23.1593 C73.3754 23.1593 75.6783 23.1593 75.6783 23.1593 C75.6783 23.1593 75.6783 25.7911 75.6783 25.7911 C75.6783 28.282 75.6783 29.6449 76.6652 30.9138 C77.7461 32.2768 79.532 32.4647 80.519 32.4647 C83.8088 32.4647 84.7957 30.4909 84.7957 27.0601 C84.7957 23.3003 83.7618 21.8904 79.955 18.1307 C76.2422 14.4179 74.1744 12.35 74.1744 7.69728 C74.1744 4.92446 74.5974 0.36571 80.425 0.36571 C86.6286 0.36571 86.6286 4.87744 86.6286 8.02627 C86.6286 8.02627 86.6286 10.4232 86.6286 10.4232 C86.6286 10.4232 84.3727 10.4232 84.3727 10.4232 C84.3727 10.4232 84.3727 7.46234 84.3727 7.46234 C84.3727 5.44146 84.3727 2.33966 80.472 2.33966 C77.4642 2.33966 76.4772 4.07847 76.4772 7.32136 C76.4772 10.5641 77.1352 11.927 82.1169 17.0027 C85.5476 20.5275 87.0986 22.1254 87.0986 26.6371 Z M68.8626 26.6371 C68.8626 29.786 68.4396 34.5326 62.095 34.5326 C58.2412 34.5326 55.1394 32.5588 55.1394 27.812 C55.1394 27.812 55.1394 23.1593 55.1394 23.1593 C55.1394 23.1593 57.4422 23.1593 57.4422 23.1593 C57.4422 23.1593 57.4422 25.7911 57.4422 25.7911 C57.4422 28.282 57.4422 29.6449 58.4292 30.9138 C59.5102 32.2768 61.296 32.4647 62.283 32.4647 C65.5728 32.4647 66.5597 30.4909 66.5597 27.0601 C66.5597 23.3003 65.5258 21.8904 61.719 18.1307 C58.0062 14.4179 55.9384 12.35 55.9384 7.69728 C55.9384 4.92446 56.3613 0.36571 62.189 0.36571 C68.3926 0.36571 68.3926 4.87744 68.3926 8.02627 C68.3926 8.02627 68.3926 10.4232 68.3926 10.4232 C68.3926 10.4232 66.1367 10.4232 66.1367 10.4232 C66.1367 10.4232 66.1367 7.46234 66.1367 7.46234 C66.1367 5.44146 66.1367 2.33966 62.236 2.33966 C59.2282 2.33966 58.2412 4.07847 58.2412 7.32136 C58.2412 10.5641 58.8992 11.927 63.8809 17.0027 C67.3116 20.5275 68.8626 22.1254 68.8626 26.6371 Z M45.3635 34.0156 C45.3635 34.0156 43.1076 34.0156 43.1076 34.0156 C43.1076 34.0156 43.1076 19.3526 43.1076 19.3526 C43.1076 19.3526 36.575 0.835684 36.575 0.835684 C36.575 0.835684 39.0189 0.835684 39.0189 0.835684 C39.0189 0.835684 44.2825 16.4388 44.2825 16.4388 C44.2825 16.4388 49.5932 0.835684 49.5932 0.835684 C49.5932 0.835684 52.1311 0.835684 52.1311 0.835684 C52.1311 0.835684 45.3635 19.3526 45.3635 19.3526 C45.3635 19.3526 45.3635 34.0156 45.3635 34.0156 Z M24.8142 34.0156 C24.8142 34.0156 20.4435 34.0156 20.4435 34.0156 C20.4435 34.0156 20.4435 0.788751 20.4435 0.788751 C20.4435 0.788751 23.2633 0.788751 23.2633 0.788751 C32.1458 0.788751 33.6967 4.87744 33.6967 14.4179 C33.6967 14.4179 33.6967 21.7964 33.6967 21.7964 C33.6967 25.7911 33.4147 27.4361 32.9918 28.658 C32.2398 30.9138 30.1249 34.0156 24.8142 34.0156 Z M31.4408 14.4179 C31.4408 11.1281 31.2528 8.63723 30.6889 6.89832 C29.326 2.95061 25.9422 2.95061 22.7464 2.95061 C22.7464 2.95061 22.7464 31.9478 22.7464 31.9478 C25.7542 31.9478 27.1641 31.9478 28.809 30.7728 C30.0779 29.8329 31.4408 28.329 31.4408 21.9844 C31.4408 21.9844 31.4408 14.4179 31.4408 14.4179 Z M7.15334 34.4387 C0.526743 34.4387 0.526743 28.987 0.526743 26.9191 C0.526743 26.9191 0.526743 8.21428 0.526743 8.21428 C0.526743 5.62938 0.949703 4.1255 1.70167 3.04457 C2.97055 1.2117 5.08542 0.459761 7.38833 0.459761 C9.5032 0.459761 11.5711 1.16467 12.746 2.90359 C13.9209 4.6425 13.9209 6.89832 13.9209 8.91919 C13.9209 8.91919 13.9209 27.2011 13.9209 27.2011 C13.9209 28.5639 13.7799 30.3499 12.8399 31.7598 C12.041 32.9817 10.2551 34.4387 7.15334 34.4387 Z M11.712 10.1881 C11.712 7.65026 11.665 5.06545 10.3491 3.70255 C9.59715 2.95061 8.42222 2.52757 7.2473 2.52757 C5.97842 2.52757 4.85043 2.95061 4.09853 3.70255 C2.73557 5.01842 2.73557 7.08632 2.73557 7.74431 C2.73557 7.74431 2.73557 26.0262 2.73557 26.0262 C2.73557 29.175 3.11158 30.5379 4.52149 31.5718 C5.27346 32.0888 6.2134 32.3708 7.2473 32.3708 C8.09328 32.3708 8.84518 32.1828 9.45619 31.8068 C11.477 30.6789 11.712 28.5639 11.712 26.3552 C11.712 26.3552 11.712 10.1881 11.712 10.1881 Z"/>
</svg>