<svg baseProfile="full" xmlns="http://www.w3.org/2000/svg" width="123" height="35"><path fill="#7b7b7b" fill-rule="evenodd" d="M115.805 19.353v14.663h-2.256v-14.663l-6.533-18.517h2.444l5.264 15.603 5.31-15.603h2.538l-6.767 18.517zm-20.633-3.666h7.755v2.021h-7.802v14.24h9.447v2.068h-11.703v-33.18h11.75v2.068h-9.447v12.783zm-8.074 10.95c0 3.149-.423 7.896-6.768 7.896-3.854 0-6.956-1.974-6.956-6.721v-4.653h2.303v2.632c0 2.491 0 3.854.987 5.123 1.081 1.363 2.867 1.551 3.854 1.551 3.29 0 4.277-1.974 4.277-5.405 0-3.76-1.034-5.17-4.841-8.929-3.713-3.713-5.781-5.781-5.781-10.433 0-2.773.423-7.332 6.251-7.332 6.204 0 6.204 4.512 6.204 7.661v2.397h-2.256v-2.961c0-2.021 0-5.123-3.901-5.123-3.008 0-3.995 1.739-3.995 4.982 0 3.243.658 4.606 5.64 9.681 3.431 3.525 4.982 5.123 4.982 9.634zm-18.236 0c0 3.149-.423 7.896-6.768 7.896-3.854 0-6.956-1.974-6.956-6.721v-4.653h2.303v2.632c0 2.491 0 3.854.987 5.123 1.081 1.363 2.867 1.551 3.854 1.551 3.29 0 4.277-1.974 4.277-5.405 0-3.76-1.034-5.17-4.841-8.929-3.713-3.713-5.781-5.781-5.781-10.433 0-2.773.423-7.332 6.251-7.332 6.204 0 6.204 4.512 6.204 7.661v2.397h-2.256v-2.961c0-2.021 0-5.123-3.901-5.123-3.008 0-3.995 1.739-3.995 4.982 0 3.243.658 4.606 5.64 9.681 3.431 3.525 4.982 5.123 4.982 9.634zm-23.499 7.378h-2.256v-14.663l-6.533-18.517h2.444l5.264 15.603 5.311-15.603h2.538l-6.768 18.517v14.663zm-20.549 0h-4.371v-33.227h2.82c8.883 0 10.433 4.089 10.433 13.629v7.378c0 3.995-.282 5.64-.705 6.862-.752 2.256-2.867 5.358-8.178 5.358zm6.627-19.598c0-3.29-.188-5.781-.752-7.52-1.363-3.948-4.747-3.948-7.942-3.948v28.997c3.008 0 4.418 0 6.063-1.175 1.269-.94 2.632-2.444 2.632-8.788v-7.567zm-24.287 20.021c-6.627 0-6.627-5.452-6.627-7.52v-18.705c0-2.585.423-4.089 1.175-5.17 1.269-1.833 3.384-2.585 5.687-2.585 2.115 0 4.183.705 5.358 2.444 1.175 1.739 1.175 3.995 1.175 6.016v18.282c0 1.363-.141 3.149-1.081 4.559-.799 1.222-2.585 2.679-5.687 2.679zm4.559-24.251c0-2.538-.047-5.123-1.363-6.486-.752-.752-1.927-1.175-3.102-1.175-1.269 0-2.397.423-3.149 1.175-1.363 1.316-1.363 3.384-1.363 4.042v18.282c0 3.149.376 4.512 1.786 5.546.752.517 1.692.799 2.726.799.846 0 1.598-.188 2.209-.564 2.021-1.128 2.256-3.243 2.256-5.452v-16.167z"/></svg>